<mxfile host="app.diagrams.net" modified="2023-08-11T03:06:19.423Z" agent="Mozilla/5.0 (Windows NT 10.0; Win64; x64) AppleWebKit/537.36 (KHTML, like Gecko) Chrome/115.0.0.0 Safari/537.36" etag="QjQ07tDipFzRO9RXbwn-" version="21.6.8" type="device">
  <diagram id="R2lEEEUBdFMjLlhIrx00" name="Page-1">
    <mxGraphModel dx="1290" dy="577" grid="1" gridSize="10" guides="1" tooltips="1" connect="1" arrows="1" fold="1" page="1" pageScale="1" pageWidth="850" pageHeight="1100" math="0" shadow="0" extFonts="Permanent Marker^https://fonts.googleapis.com/css?family=Permanent+Marker">
      <root>
        <mxCell id="0" />
        <mxCell id="1" parent="0" />
        <mxCell id="OBxeqycEYdTg5ApRtu5S-1" value="Broadcasts" style="rhombus;whiteSpace=wrap;html=1;" parent="1" vertex="1">
          <mxGeometry x="400" y="220" width="180" height="80" as="geometry" />
        </mxCell>
        <mxCell id="OBxeqycEYdTg5ApRtu5S-3" value="" style="endArrow=none;html=1;rounded=0;entryX=0;entryY=0.5;entryDx=0;entryDy=0;" parent="1" target="OBxeqycEYdTg5ApRtu5S-1" edge="1">
          <mxGeometry width="50" height="50" relative="1" as="geometry">
            <mxPoint x="320" y="260" as="sourcePoint" />
            <mxPoint x="470" y="240" as="targetPoint" />
            <Array as="points">
              <mxPoint x="320" y="260" />
            </Array>
          </mxGeometry>
        </mxCell>
        <mxCell id="OBxeqycEYdTg5ApRtu5S-4" value="Reality Show" style="rounded=0;whiteSpace=wrap;html=1;" parent="1" vertex="1">
          <mxGeometry x="200" y="230" width="120" height="60" as="geometry" />
        </mxCell>
        <mxCell id="OBxeqycEYdTg5ApRtu5S-5" value="" style="endArrow=none;html=1;rounded=0;" parent="1" target="OBxeqycEYdTg5ApRtu5S-6" edge="1">
          <mxGeometry width="50" height="50" relative="1" as="geometry">
            <mxPoint x="680" y="260" as="sourcePoint" />
            <mxPoint x="680" y="260" as="targetPoint" />
            <Array as="points">
              <mxPoint x="580" y="260" />
            </Array>
          </mxGeometry>
        </mxCell>
        <mxCell id="OBxeqycEYdTg5ApRtu5S-6" value="Television" style="rounded=0;whiteSpace=wrap;html=1;" parent="1" vertex="1">
          <mxGeometry x="650" y="230" width="120" height="60" as="geometry" />
        </mxCell>
        <mxCell id="OBxeqycEYdTg5ApRtu5S-9" value="Name" style="ellipse;whiteSpace=wrap;html=1;" parent="1" vertex="1">
          <mxGeometry x="50" y="140" width="120" height="50" as="geometry" />
        </mxCell>
        <mxCell id="OBxeqycEYdTg5ApRtu5S-10" value="" style="endArrow=none;html=1;rounded=0;entryX=0.5;entryY=0;entryDx=0;entryDy=0;" parent="1" target="OBxeqycEYdTg5ApRtu5S-4" edge="1">
          <mxGeometry width="50" height="50" relative="1" as="geometry">
            <mxPoint x="260" y="230" as="sourcePoint" />
            <mxPoint x="310" y="230" as="targetPoint" />
            <Array as="points">
              <mxPoint x="150" y="180" />
            </Array>
          </mxGeometry>
        </mxCell>
        <mxCell id="OBxeqycEYdTg5ApRtu5S-11" value="Genre" style="ellipse;whiteSpace=wrap;html=1;" parent="1" vertex="1">
          <mxGeometry x="110" y="60" width="120" height="50" as="geometry" />
        </mxCell>
        <mxCell id="OBxeqycEYdTg5ApRtu5S-12" value="Info" style="ellipse;whiteSpace=wrap;html=1;" parent="1" vertex="1">
          <mxGeometry x="250" y="57.5" width="120" height="55" as="geometry" />
        </mxCell>
        <mxCell id="OBxeqycEYdTg5ApRtu5S-13" value="" style="endArrow=none;html=1;rounded=0;entryX=0.5;entryY=1;entryDx=0;entryDy=0;" parent="1" target="OBxeqycEYdTg5ApRtu5S-12" edge="1">
          <mxGeometry width="50" height="50" relative="1" as="geometry">
            <mxPoint x="260" y="230" as="sourcePoint" />
            <mxPoint x="310" y="180" as="targetPoint" />
          </mxGeometry>
        </mxCell>
        <mxCell id="OBxeqycEYdTg5ApRtu5S-14" value="" style="endArrow=none;html=1;rounded=0;entryX=0.563;entryY=1.048;entryDx=0;entryDy=0;entryPerimeter=0;" parent="1" target="OBxeqycEYdTg5ApRtu5S-11" edge="1">
          <mxGeometry width="50" height="50" relative="1" as="geometry">
            <mxPoint x="260" y="230" as="sourcePoint" />
            <mxPoint x="310" y="180" as="targetPoint" />
          </mxGeometry>
        </mxCell>
        <mxCell id="OBxeqycEYdTg5ApRtu5S-15" value="" style="endArrow=none;html=1;rounded=0;entryX=0.432;entryY=1.02;entryDx=0;entryDy=0;entryPerimeter=0;" parent="1" target="OBxeqycEYdTg5ApRtu5S-16" edge="1">
          <mxGeometry width="50" height="50" relative="1" as="geometry">
            <mxPoint x="260" y="230" as="sourcePoint" />
            <mxPoint x="310" y="180" as="targetPoint" />
          </mxGeometry>
        </mxCell>
        <mxCell id="OBxeqycEYdTg5ApRtu5S-16" value="Participants" style="ellipse;whiteSpace=wrap;html=1;" parent="1" vertex="1">
          <mxGeometry x="370" y="10" width="140" height="80" as="geometry" />
        </mxCell>
        <mxCell id="OBxeqycEYdTg5ApRtu5S-17" value="Participants" style="ellipse;whiteSpace=wrap;html=1;" parent="1" vertex="1">
          <mxGeometry x="380" y="20" width="120" height="60" as="geometry" />
        </mxCell>
        <mxCell id="OBxeqycEYdTg5ApRtu5S-19" value="Name" style="ellipse;whiteSpace=wrap;html=1;" parent="1" vertex="1">
          <mxGeometry x="530" y="112.5" width="120" height="50" as="geometry" />
        </mxCell>
        <mxCell id="OBxeqycEYdTg5ApRtu5S-20" value="" style="endArrow=none;html=1;rounded=0;entryX=0.5;entryY=1;entryDx=0;entryDy=0;" parent="1" target="OBxeqycEYdTg5ApRtu5S-19" edge="1">
          <mxGeometry width="50" height="50" relative="1" as="geometry">
            <mxPoint x="710" y="230" as="sourcePoint" />
            <mxPoint x="760" y="180" as="targetPoint" />
          </mxGeometry>
        </mxCell>
        <mxCell id="OBxeqycEYdTg5ApRtu5S-21" value="StartYear" style="ellipse;whiteSpace=wrap;html=1;" parent="1" vertex="1">
          <mxGeometry x="650" y="60" width="120" height="60" as="geometry" />
        </mxCell>
        <mxCell id="OBxeqycEYdTg5ApRtu5S-22" value="" style="endArrow=none;html=1;rounded=0;entryX=0.5;entryY=1;entryDx=0;entryDy=0;" parent="1" target="OBxeqycEYdTg5ApRtu5S-21" edge="1">
          <mxGeometry width="50" height="50" relative="1" as="geometry">
            <mxPoint x="710" y="230" as="sourcePoint" />
            <mxPoint x="760" y="180" as="targetPoint" />
          </mxGeometry>
        </mxCell>
        <mxCell id="OBxeqycEYdTg5ApRtu5S-23" value="HeadOffice" style="ellipse;whiteSpace=wrap;html=1;" parent="1" vertex="1">
          <mxGeometry x="780" y="110" width="120" height="60" as="geometry" />
        </mxCell>
        <mxCell id="OBxeqycEYdTg5ApRtu5S-24" value="" style="endArrow=none;html=1;rounded=0;entryX=0.5;entryY=1;entryDx=0;entryDy=0;" parent="1" target="OBxeqycEYdTg5ApRtu5S-23" edge="1">
          <mxGeometry width="50" height="50" relative="1" as="geometry">
            <mxPoint x="710" y="230" as="sourcePoint" />
            <mxPoint x="760" y="180" as="targetPoint" />
          </mxGeometry>
        </mxCell>
        <mxCell id="OBxeqycEYdTg5ApRtu5S-25" value="Produces" style="rhombus;whiteSpace=wrap;html=1;" parent="1" vertex="1">
          <mxGeometry x="220" y="340" width="140" height="80" as="geometry" />
        </mxCell>
        <mxCell id="OBxeqycEYdTg5ApRtu5S-26" value="" style="endArrow=none;html=1;rounded=0;exitX=0.5;exitY=0;exitDx=0;exitDy=0;" parent="1" source="OBxeqycEYdTg5ApRtu5S-25" edge="1">
          <mxGeometry width="50" height="50" relative="1" as="geometry">
            <mxPoint x="210" y="340" as="sourcePoint" />
            <mxPoint x="260" y="290" as="targetPoint" />
          </mxGeometry>
        </mxCell>
        <mxCell id="OBxeqycEYdTg5ApRtu5S-27" value="Producer" style="rounded=0;whiteSpace=wrap;html=1;" parent="1" vertex="1">
          <mxGeometry x="160" y="480" width="120" height="60" as="geometry" />
        </mxCell>
        <mxCell id="OBxeqycEYdTg5ApRtu5S-28" value="" style="endArrow=none;html=1;rounded=0;exitX=0.5;exitY=0;exitDx=0;exitDy=0;" parent="1" source="OBxeqycEYdTg5ApRtu5S-27" edge="1">
          <mxGeometry width="50" height="50" relative="1" as="geometry">
            <mxPoint x="240" y="470" as="sourcePoint" />
            <mxPoint x="290" y="420" as="targetPoint" />
          </mxGeometry>
        </mxCell>
        <mxCell id="OBxeqycEYdTg5ApRtu5S-29" value="" style="endArrow=none;html=1;rounded=0;exitX=0.5;exitY=0;exitDx=0;exitDy=0;" parent="1" source="OBxeqycEYdTg5ApRtu5S-32" edge="1">
          <mxGeometry width="50" height="50" relative="1" as="geometry">
            <mxPoint x="270" y="590" as="sourcePoint" />
            <mxPoint x="220" y="540" as="targetPoint" />
          </mxGeometry>
        </mxCell>
        <mxCell id="OBxeqycEYdTg5ApRtu5S-30" value="" style="endArrow=none;html=1;rounded=0;exitX=0.5;exitY=0;exitDx=0;exitDy=0;" parent="1" source="OBxeqycEYdTg5ApRtu5S-31" edge="1">
          <mxGeometry width="50" height="50" relative="1" as="geometry">
            <mxPoint x="170" y="590" as="sourcePoint" />
            <mxPoint x="220" y="540" as="targetPoint" />
          </mxGeometry>
        </mxCell>
        <mxCell id="OBxeqycEYdTg5ApRtu5S-31" value="CName" style="ellipse;whiteSpace=wrap;html=1;" parent="1" vertex="1">
          <mxGeometry x="80" y="610" width="120" height="50" as="geometry" />
        </mxCell>
        <mxCell id="OBxeqycEYdTg5ApRtu5S-32" value="Country" style="ellipse;whiteSpace=wrap;html=1;" parent="1" vertex="1">
          <mxGeometry x="250" y="610" width="120" height="50" as="geometry" />
        </mxCell>
        <mxCell id="OBxeqycEYdTg5ApRtu5S-34" value="" style="endArrow=none;html=1;rounded=0;exitX=0;exitY=0.5;exitDx=0;exitDy=0;" parent="1" source="OBxeqycEYdTg5ApRtu5S-35" edge="1">
          <mxGeometry width="50" height="50" relative="1" as="geometry">
            <mxPoint x="410" y="370" as="sourcePoint" />
            <mxPoint x="320" y="290" as="targetPoint" />
          </mxGeometry>
        </mxCell>
        <mxCell id="OBxeqycEYdTg5ApRtu5S-35" value="Rates" style="rhombus;whiteSpace=wrap;html=1;" parent="1" vertex="1">
          <mxGeometry x="480" y="350" width="150" height="80" as="geometry" />
        </mxCell>
        <mxCell id="OBxeqycEYdTg5ApRtu5S-36" value="" style="endArrow=none;html=1;rounded=0;entryX=0.5;entryY=1;entryDx=0;entryDy=0;" parent="1" target="OBxeqycEYdTg5ApRtu5S-35" edge="1">
          <mxGeometry width="50" height="50" relative="1" as="geometry">
            <mxPoint x="460" y="480" as="sourcePoint" />
            <mxPoint x="540" y="450" as="targetPoint" />
          </mxGeometry>
        </mxCell>
        <mxCell id="OBxeqycEYdTg5ApRtu5S-37" value="Rating" style="ellipse;whiteSpace=wrap;html=1;" parent="1" vertex="1">
          <mxGeometry x="390" y="480" width="120" height="50" as="geometry" />
        </mxCell>
        <mxCell id="OBxeqycEYdTg5ApRtu5S-38" value="" style="endArrow=none;html=1;rounded=0;" parent="1" edge="1">
          <mxGeometry width="50" height="50" relative="1" as="geometry">
            <mxPoint x="750" y="480" as="sourcePoint" />
            <mxPoint x="630" y="390" as="targetPoint" />
          </mxGeometry>
        </mxCell>
        <mxCell id="OBxeqycEYdTg5ApRtu5S-39" value="User" style="rounded=0;whiteSpace=wrap;html=1;" parent="1" vertex="1">
          <mxGeometry x="690" y="480" width="120" height="50" as="geometry" />
        </mxCell>
        <mxCell id="OBxeqycEYdTg5ApRtu5S-40" value="" style="endArrow=none;html=1;rounded=0;exitX=0.5;exitY=0;exitDx=0;exitDy=0;" parent="1" source="OBxeqycEYdTg5ApRtu5S-41" edge="1">
          <mxGeometry width="50" height="50" relative="1" as="geometry">
            <mxPoint x="650" y="610" as="sourcePoint" />
            <mxPoint x="750" y="530" as="targetPoint" />
          </mxGeometry>
        </mxCell>
        <mxCell id="OBxeqycEYdTg5ApRtu5S-41" value="Name" style="ellipse;whiteSpace=wrap;html=1;" parent="1" vertex="1">
          <mxGeometry x="530" y="610" width="120" height="40" as="geometry" />
        </mxCell>
        <mxCell id="OBxeqycEYdTg5ApRtu5S-42" value="" style="endArrow=none;html=1;rounded=0;exitX=0.5;exitY=0;exitDx=0;exitDy=0;" parent="1" source="OBxeqycEYdTg5ApRtu5S-43" edge="1">
          <mxGeometry width="50" height="50" relative="1" as="geometry">
            <mxPoint x="750" y="610" as="sourcePoint" />
            <mxPoint x="750" y="530" as="targetPoint" />
          </mxGeometry>
        </mxCell>
        <mxCell id="OBxeqycEYdTg5ApRtu5S-43" value="Psw" style="ellipse;whiteSpace=wrap;html=1;" parent="1" vertex="1">
          <mxGeometry x="690" y="650" width="120" height="40" as="geometry" />
        </mxCell>
        <mxCell id="OBxeqycEYdTg5ApRtu5S-45" value="" style="endArrow=none;html=1;rounded=0;exitX=0.5;exitY=0;exitDx=0;exitDy=0;" parent="1" source="OBxeqycEYdTg5ApRtu5S-46" edge="1">
          <mxGeometry width="50" height="50" relative="1" as="geometry">
            <mxPoint x="880" y="610" as="sourcePoint" />
            <mxPoint x="750" y="530" as="targetPoint" />
          </mxGeometry>
        </mxCell>
        <mxCell id="OBxeqycEYdTg5ApRtu5S-46" value="Age" style="ellipse;whiteSpace=wrap;html=1;" parent="1" vertex="1">
          <mxGeometry x="850" y="610" width="120" height="40" as="geometry" />
        </mxCell>
        <mxCell id="OBxeqycEYdTg5ApRtu5S-47" value="N" style="text;html=1;align=center;verticalAlign=middle;resizable=0;points=[];autosize=1;strokeColor=none;fillColor=none;" parent="1" vertex="1">
          <mxGeometry x="350" y="220" width="30" height="30" as="geometry" />
        </mxCell>
        <mxCell id="OBxeqycEYdTg5ApRtu5S-48" value="1" style="text;html=1;align=center;verticalAlign=middle;resizable=0;points=[];autosize=1;strokeColor=none;fillColor=none;" parent="1" vertex="1">
          <mxGeometry x="595" y="228" width="30" height="30" as="geometry" />
        </mxCell>
        <mxCell id="OBxeqycEYdTg5ApRtu5S-49" value="1" style="text;html=1;align=center;verticalAlign=middle;resizable=0;points=[];autosize=1;strokeColor=none;fillColor=none;" parent="1" vertex="1">
          <mxGeometry x="225" y="298" width="30" height="30" as="geometry" />
        </mxCell>
        <mxCell id="OBxeqycEYdTg5ApRtu5S-51" value="N" style="text;html=1;align=center;verticalAlign=middle;resizable=0;points=[];autosize=1;strokeColor=none;fillColor=none;" parent="1" vertex="1">
          <mxGeometry x="415" y="298" width="30" height="30" as="geometry" />
        </mxCell>
        <mxCell id="OBxeqycEYdTg5ApRtu5S-52" value="N" style="text;html=1;align=center;verticalAlign=middle;resizable=0;points=[];autosize=1;strokeColor=none;fillColor=none;" parent="1" vertex="1">
          <mxGeometry x="715" y="398" width="30" height="30" as="geometry" />
        </mxCell>
      </root>
    </mxGraphModel>
  </diagram>
</mxfile>
